<svg xmlns="http://www.w3.org/2000/svg" xmlns:xlink="http://www.w3.org/1999/xlink" version="1.1" id="Your_Icon" x="0px" y="0px" width="100px" height="100px" viewBox="5.0 -10.0 100.0 135.0" enable-background="new 0 0 100 100" xml:space="preserve">
<g>
	<g>
		<g>
			<g>
			</g>
		</g>
		<g>
		</g>
	</g>
</g>
<path d="M70.654,23.658C57.975,12.131,57.566,7.074,57.566,7.051c0-0.228-0.078-0.45-0.223-0.628  c-0.115-0.142-1.176-1.393-2.69-1.393c-0.655,0-1.628,0.245-2.528,1.412c-0.131,0.172-0.207,0.385-0.21,0.604l-0.267,56.866  c-0.003,0.031-0.172,3.046-2.029,3.046c-0.141,0-0.294-0.016-0.357-0.021c-0.213-0.064-5.299-1.547-11.218-1.547  c-11.589,0-18.019,5.793-18.106,16.313c-0.028,3.447,1.074,6.32,3.274,8.537c2.719,2.743,6.972,4.253,11.973,4.253  c9.613,0,20.768-5.705,22.498-16.279c2.265-13.771,0.759-46.192,0.693-47.588c-0.054-0.764-0.013-3.152,0.85-4.071  c0.518-0.555,1.346-0.391,2.528,0.317c3.133,1.88,10.456,7.623,10.761,20.311c0.122,5.062,0.85,7.127,2.509,7.127  c1.396,0,2.424-1.851,2.913-2.954C78.006,51.204,84.441,36.191,70.654,23.658L70.654,23.658z" fill="white"/>
</svg>