<svg xmlns="http://www.w3.org/2000/svg" xmlns:xlink="http://www.w3.org/1999/xlink" version="1.1" id="Layer_1" x="0px" y="0px" width="90px" height="90px" viewBox="4.5 -9.0 90.0 121.5" enable-background="new 0 0 90 90" xml:space="preserve">
<g id="Layer_2">
</g>
<g id="Layer_3">
</g>
<g>
	<path d="M82.914,22.033c0-0.829-0.672-1.5-1.5-1.5H67.719c-0.828,0-1.5,0.671-1.5,1.5v5.902c0,0.118,0.017,0.232,0.043,0.342v6.422   c-0.323-0.084-0.656-0.143-1.005-0.143c-2.208,0-4.004,1.796-4.004,4.004s1.796,4.004,4.004,4.004s4.005-1.796,4.005-4.004   c0-0.222-0.031-0.435-0.065-0.647c0.038-0.133,0.065-0.27,0.065-0.415v-8.063H79.9v5.264c-0.323-0.084-0.655-0.143-1.004-0.143   c-2.208,0-4.004,1.796-4.004,4.004s1.796,4.004,4.004,4.004S82.9,40.768,82.9,38.56c0-0.222-0.031-0.435-0.065-0.647   c0.038-0.133,0.065-0.27,0.065-0.415v-9.427c0.004-0.045,0.014-0.089,0.014-0.136V22.033z M69.219,23.533h10.694v2.902H69.219   V23.533z M65.257,39.565c-0.554,0-1.004-0.451-1.004-1.004s0.45-1.004,1.004-1.004s1.005,0.451,1.005,1.004   S65.811,39.565,65.257,39.565z M78.896,39.565c-0.554,0-1.004-0.451-1.004-1.004s0.45-1.004,1.004-1.004S79.9,38.006,79.9,38.56   S79.45,39.565,78.896,39.565z" fill="white"/>
	<path d="M14.119,36.287c0-0.489-0.101-0.952-0.262-1.385v-5.386l10.694-2.04v4.971c-0.343-0.096-0.698-0.164-1.071-0.164   c-2.208,0-4.005,1.796-4.005,4.004s1.797,4.004,4.005,4.004s4.004-1.796,4.004-4.004c0-0.166-0.029-0.323-0.049-0.484   c0.075-0.178,0.116-0.373,0.116-0.579v-9.562V19.76c0-0.447-0.199-0.871-0.544-1.156c-0.346-0.285-0.8-0.401-1.237-0.318   l-13.694,2.612c-0.707,0.135-1.219,0.753-1.219,1.474v5.903v4.083c-0.241-0.046-0.489-0.075-0.743-0.075   c-2.208,0-4.004,1.796-4.004,4.004s1.796,4.004,4.004,4.004S14.119,38.495,14.119,36.287z M23.48,37.292   c-0.554,0-1.005-0.451-1.005-1.004s0.451-1.004,1.005-1.004s1.004,0.45,1.004,1.004S24.034,37.292,23.48,37.292z M13.857,23.613   l10.694-2.04v2.849l-10.694,2.04V23.613z M10.114,37.292c-0.554,0-1.004-0.451-1.004-1.004s0.45-1.004,1.004-1.004   c0.371,0,0.683,0.211,0.857,0.511c0.022,0.053,0.052,0.102,0.079,0.151c0.039,0.107,0.069,0.22,0.069,0.341   C11.119,36.841,10.667,37.292,10.114,37.292z" fill="white"/>
	<path d="M67.062,58.822c-0.013-9.595-6.093-17.793-14.602-20.96v-5.389c0-0.829-0.672-1.5-1.5-1.5h-4.662V9.411   c0-0.829-0.672-1.5-1.5-1.5s-1.5,0.671-1.5,1.5v21.562h-4.854c-0.828,0-1.5,0.671-1.5,1.5v5.366   c-8.54,3.151-14.647,11.366-14.66,20.983c-0.03,0.118-0.051,0.24-0.051,0.367c0,0.149,0.029,0.291,0.069,0.427   c0.405,11.993,10.281,21.626,22.37,21.626s21.966-9.633,22.37-21.626c0.041-0.136,0.069-0.278,0.069-0.427   C67.113,59.062,67.092,58.941,67.062,58.822z M61.398,68.617h-4.939c0.706-2.413,1.148-5.082,1.269-7.927h6.242   C63.699,63.562,62.788,66.245,61.398,68.617z M25.377,60.69h6.243c0.121,2.845,0.563,5.515,1.269,7.927h-4.94   C26.559,66.245,25.648,63.562,25.377,60.69z M27.558,49.762h5.276c-0.689,2.417-1.113,5.087-1.219,7.927h-6.272   C25.513,54.84,26.284,52.152,27.558,49.762z M46.173,46.762v-6.004c2.333,0.672,4.427,2.866,5.966,6.004H46.173z M53.347,49.762   c0.773,2.376,1.265,5.07,1.388,7.927h-8.562v-7.927H53.347z M43.173,40.759v6.004h-5.965   C38.748,43.625,40.841,41.431,43.173,40.759z M43.173,49.762v7.927h-8.561c0.123-2.857,0.615-5.551,1.388-7.927H43.173z    M34.618,60.69h8.555v7.927h-7.108C35.273,66.247,34.758,63.554,34.618,60.69z M43.173,71.617v5.811   c-2.284-0.658-4.34-2.776-5.87-5.811H43.173z M46.173,77.428v-5.811h5.871C50.514,74.652,48.458,76.77,46.173,77.428z    M46.173,68.617V60.69h8.556c-0.14,2.864-0.655,5.557-1.447,7.927H46.173z M57.733,57.69c-0.106-2.841-0.531-5.511-1.219-7.927   h5.133c0.046,0,0.09-0.01,0.135-0.014c1.278,2.393,2.051,5.086,2.222,7.941C64.004,57.69,57.733,57.69,57.733,57.69z    M59.806,46.762h-4.325c-1.001-2.401-2.295-4.424-3.799-5.968C54.891,42.045,57.687,44.116,59.806,46.762z M39.945,33.973h9.516   v3.011c-1.543-0.338-3.144-0.521-4.787-0.521c-1.622,0-3.203,0.178-4.729,0.507V33.973z M37.666,40.794   c-1.505,1.544-2.799,3.567-3.799,5.968H29.54C31.66,44.116,34.456,42.044,37.666,40.794z M30.114,71.617h3.839   c0.832,1.948,1.857,3.643,3.032,5.029C34.333,75.495,31.997,73.761,30.114,71.617z M52.362,76.645   c1.176-1.385,2.2-3.08,3.032-5.028h3.838C57.35,73.761,55.014,75.494,52.362,76.645z" fill="white" />
	<path d="M20.295,47.815l-5.764-2.473c-0.766-0.328-1.644,0.026-1.971,0.787c-0.326,0.761,0.026,1.643,0.787,1.97l5.764,2.473   c0.193,0.083,0.394,0.122,0.591,0.122c0.582,0,1.136-0.341,1.38-0.909C21.409,49.023,21.056,48.141,20.295,47.815z" fill="white"/>
	<path d="M18.341,69.122l-5.764,2.473c-0.761,0.327-1.113,1.208-0.787,1.97c0.244,0.569,0.798,0.909,1.38,0.909   c0.197,0,0.397-0.039,0.591-0.122l5.764-2.473c0.761-0.327,1.113-1.208,0.787-1.97C19.985,69.147,19.105,68.793,18.341,69.122z" fill="white"/>
	<path d="M12.664,61.353l6.271-0.013c0.829-0.002,1.499-0.675,1.497-1.503s-0.673-1.497-1.5-1.497c-0.001,0-0.002,0-0.003,0   l-6.271,0.013c-0.829,0.002-1.499,0.675-1.497,1.503s0.673,1.497,1.5,1.497C12.663,61.353,12.664,61.353,12.664,61.353z" fill="white"/>
	<path d="M70.259,50.693c0.197,0,0.397-0.039,0.591-0.122l5.764-2.473c0.761-0.327,1.113-1.208,0.787-1.97   c-0.327-0.762-1.207-1.114-1.971-0.787l-5.764,2.473c-0.761,0.327-1.113,1.208-0.787,1.97   C69.123,50.353,69.677,50.693,70.259,50.693z" fill="white"/>
	<path d="M75.383,71.594l-5.763-2.473c-0.766-0.33-1.645,0.026-1.971,0.787s0.026,1.643,0.787,1.97l5.763,2.473   c0.193,0.083,0.394,0.122,0.591,0.122c0.582,0,1.136-0.341,1.38-0.909C76.497,72.803,76.144,71.921,75.383,71.594z" fill="white"/>
	<path d="M77.303,58.353l-6.271-0.013c-0.001,0-0.002,0-0.003,0c-0.827,0-1.498,0.669-1.5,1.497   c-0.002,0.828,0.668,1.501,1.497,1.503l6.271,0.013c0,0,0.002,0,0.003,0c0.827,0,1.498-0.669,1.5-1.497   C78.802,59.028,78.132,58.355,77.303,58.353z" fill="white"/>
</g>
</svg>