<svg xmlns="http://www.w3.org/2000/svg" xmlns:xlink="http://www.w3.org/1999/xlink" version="1.1" id="Layer_1" x="0px" y="0px" width="100px" height="100px" viewBox="5.0 -10.0 100.0 135.0" enable-background="new 0 0 100 100" xml:space="preserve">
<path fill="none" d="M82.659,52.04c-0.006-0.002-0.011-0.005-0.016-0.007c-0.763,0.751-1.61,1.346-2.514,1.705  c-0.614,0.243-1.255,0.378-1.913,0.378c-0.657,0-1.298-0.135-1.911-0.378c-0.913-0.362-1.767-0.966-2.535-1.727  c-0.001,0-0.001,0-0.001,0c-0.001,0.938-0.716,1.471-1.202,1.727c-0.058,0.03-0.112,0.057-0.162,0.079  c-0.121,0.055-0.213,0.088-0.254,0.101c0,0,0,0,0,0.001c0.028,0.24,0.135,0.473,0.307,0.692c0.804,1.027,3.063,2.512,5.725,2.512  c2.663,0,4.922-1.484,5.726-2.512c0.172-0.22,0.278-0.452,0.308-0.692c0.001-0.006,0.001-0.014,0.002-0.021  C83.888,53.777,82.677,53.248,82.659,52.04z"/>
<path fill="none" d="M13.508,44.234c0.007,0.042,0.011,0.084,0.019,0.127c0.117,0.654,0.363,1.2,0.633,1.47  c0.133,0.133,0.272,0.2,0.403,0.177c0,0,0,0,0,0c0.033-0.006,0.061-0.031,0.091-0.048c0.027-0.015,0.058-0.021,0.083-0.043  c0.644,2.001,1.876,3.994,3.432,5.185c0.896,0.686,1.898,1.105,2.958,1.105h0c0.117,0,0.229-0.024,0.345-0.034  c0.687-0.06,1.35-0.274,1.969-0.638c0.241-0.141,0.476-0.302,0.704-0.48c1.527-1.195,2.737-3.163,3.372-5.138c0,0,0,0,0,0  c0.052,0.049,0.11,0.08,0.174,0.091c0.057,0.01,0.115,0.003,0.173-0.018c0.059-0.021,0.118-0.058,0.176-0.106  c0.291-0.247,0.564-0.822,0.689-1.521c0.163-0.912,0.016-1.712-0.326-1.873c-0.025-0.011-0.051-0.02-0.078-0.024c0,0,0,0-0.001,0  c-0.01-0.001-0.02,0.003-0.03,0.002c-0.097-0.006-0.196,0.026-0.294,0.103v0l-0.005,0.007c0,0,0,0,0,0c0,0,0,0,0-0.001  c0,0-0.001,0-0.001,0.001c-0.001,0-0.001,0.001-0.002,0.001c0-0.006-0.001-0.013-0.002-0.02c-0.412-1.564-0.93-2.521-1.466-3.092  c-0.104-0.056-0.212-0.106-0.331-0.141c0,0,0,0,0,0c-0.013,0.23,0.249,0.581,0.277,0.922c0,0-0.001,0-0.001,0  c-0.743-0.346-1.453-0.884-2.49-0.922c-0.243-0.009-0.505-0.007-0.774-0.001c-0.313,0.112-0.63,0.194-0.945,0.252  c-2.205,0.405-4.312-0.37-4.312-0.37c-1.178-0.109-1.984,0.281-2.533,0.832c-0.915,0.917-1.119,2.278-1.143,2.512  c-0.001,0.009-0.001,0.018-0.002,0.026c0,0,0,0-0.001,0c-0.112-0.09-0.226-0.132-0.334-0.113c-0.048,0.009-0.093,0.028-0.133,0.058  c0,0,0,0-0.001,0.001c-0.098,0.071-0.174,0.202-0.231,0.37C13.535,43.332,13.515,43.776,13.508,44.234z"/>
<path fill="none" d="M40.277,40.864c-0.04,0.555-0.064,1.116-0.072,1.694c0.008,0.054,0.013,0.107,0.023,0.162  c0.147,0.827,0.458,1.516,0.799,1.857c0.168,0.168,0.344,0.251,0.511,0.222h0c0.081-0.013,0.152-0.053,0.218-0.114  c0,0,0.001,0,0.002-0.001c0.813,2.529,2.371,5.049,4.337,6.553c1.132,0.867,2.399,1.398,3.737,1.398c0,0,0,0,0.001,0  c1.367,0,2.662-0.555,3.812-1.456c1.931-1.51,3.46-3.998,4.263-6.494c0,0,0,0,0-0.001c0.066,0.062,0.14,0.102,0.221,0.115  c0.071,0.013,0.145,0.004,0.218-0.022c0.074-0.027,0.149-0.072,0.223-0.135c0.367-0.312,0.713-1.039,0.87-1.923  c0.207-1.153,0.021-2.164-0.413-2.366c-0.03-0.015-0.063-0.026-0.098-0.032c-0.067-0.012-0.137-0.005-0.206,0.019  c-0.068,0.023-0.138,0.062-0.206,0.116l-0.007,0.009c0,0,0-0.001,0-0.001c-0.001,0-0.001-0.001-0.001-0.001  c-0.001,0-0.001,0.001-0.002,0.001c0,0-0.001,0.001-0.002,0.002c0,0,0-0.001,0-0.001c-0.001-0.008-0.001-0.016-0.002-0.024  c-0.521-1.977-1.177-3.187-1.854-3.907c-0.132-0.071-0.269-0.135-0.418-0.178c0,0,0,0.001,0,0.001  c-0.017,0.292,0.314,0.734,0.35,1.165l-0.001,0c-0.939-0.438-1.838-1.117-3.147-1.166c-0.307-0.011-0.639-0.008-0.979-0.001  c-3.164,1.13-6.644-0.148-6.644-0.148c-0.744-0.069-1.371,0.02-1.898,0.213c-2.285,0.837-2.708,3.63-2.748,4.013  c0,0.011-0.001,0.023-0.002,0.034c0,0,0,0-0.001,0c0,0,0,0,0,0c-0.142-0.113-0.285-0.167-0.422-0.142  c-0.043,0.007-0.083,0.031-0.122,0.052c-0.015,0.009-0.033,0.01-0.047,0.021C40.446,40.485,40.349,40.651,40.277,40.864z"/>
<path fill="#FFFFFF" d="M85.299,43.145c-0.023-0.012-0.05-0.02-0.075-0.024l-0.759,0.731l-9.35-4.812  c-3.056-0.283-3.541,3.8-3.578,4.165c-0.002,0.017-0.003,0.026-0.003,0.026v0c-0.108-0.088-0.22-0.128-0.325-0.11  c-0.047,0.008-0.09,0.027-0.131,0.056c-0.294,0.212-0.413,0.953-0.264,1.791c0.114,0.637,0.354,1.169,0.617,1.431  c0.129,0.13,0.265,0.194,0.394,0.171c0.063-0.011,0.119-0.042,0.17-0.089c0.62,1.932,1.807,3.857,3.304,5.02  c0.881,0.685,1.871,1.105,2.917,1.105c1.04,0,2.024-0.415,2.902-1.093c1.504-1.161,2.695-3.093,3.319-5.033  c0.052,0.048,0.107,0.079,0.171,0.089c0.11,0.02,0.226-0.025,0.338-0.121c0.283-0.24,0.55-0.801,0.671-1.482  C85.777,44.08,85.633,43.301,85.299,43.145z"/>
<path fill="#FFFFFF" d="M40.109,45.543c0.885,2.38,2.286,4.692,4.018,6.384c0.98,0.958,2.066,1.716,3.225,2.176  c0.796,0.315,1.627,0.491,2.481,0.491c0.853,0,1.684-0.177,2.481-0.491c1.198-0.475,2.321-1.271,3.327-2.276  c1.69-1.687,3.056-3.963,3.923-6.303c0.667-0.196,1.367-1.446,1.651-3.043c0.311-1.732,0.018-3.243-0.651-3.495  c0.025-0.423,0.04-0.85,0.039-1.289c-0.016-6.279-3.697-9.93-9.502-10.319c-5.061-0.339-8.874,1.671-10.611,5.014  c-0.584,1.125-0.918,2.532-1.045,4.06c-0.195,0.795-0.31,1.623-0.31,2.478h0.019c0,0.007-0.001,0.013-0.002,0.02  c-0.013,0.001-0.025,0.002-0.038,0.004c-0.74,0.129-1.077,1.708-0.752,3.527C38.66,44.153,39.413,45.446,40.109,45.543z   M40.738,40.323c0.138-0.024,0.281,0.029,0.422,0.142c0,0,0,0,0,0c0,0,0,0,0.001,0c0-0.011,0.001-0.023,0.002-0.034  c0.04-0.383,0.462-3.176,2.748-4.013c0.527-0.193,1.154-0.282,1.898-0.213c0,0,3.479,1.279,6.644,0.148  c0.341-0.007,0.673-0.009,0.979,0.001c1.31,0.049,2.208,0.728,3.147,1.166l0.001,0c-0.035-0.431-0.366-0.873-0.35-1.165  c0,0,0-0.001,0-0.001c0.149,0.043,0.286,0.107,0.418,0.178c0.677,0.721,1.332,1.931,1.854,3.907  c0.001,0.008,0.001,0.016,0.002,0.024c0,0,0,0.001,0,0.001c0.001,0,0.002-0.001,0.002-0.002c0.001,0,0.001-0.001,0.002-0.001  c0,0,0,0.001,0.001,0.001c0,0,0,0.001,0,0.001l0.007-0.009c0.068-0.054,0.138-0.093,0.206-0.116c0.069-0.023,0.139-0.03,0.206-0.019  c0.034,0.006,0.067,0.017,0.098,0.032c0.434,0.202,0.62,1.213,0.413,2.366c-0.157,0.884-0.503,1.611-0.87,1.923  c-0.073,0.063-0.148,0.108-0.223,0.135c-0.073,0.026-0.146,0.035-0.218,0.022c-0.081-0.013-0.154-0.053-0.221-0.115c0,0,0,0,0,0.001  c-0.803,2.496-2.332,4.984-4.263,6.494c-1.15,0.901-2.445,1.456-3.812,1.456c0,0,0,0-0.001,0c-1.338,0-2.605-0.531-3.737-1.398  c-1.966-1.504-3.524-4.023-4.337-6.553c0,0-0.001,0-0.002,0.001c-0.066,0.061-0.138,0.101-0.218,0.114h0  c-0.167,0.029-0.342-0.054-0.511-0.222c-0.341-0.341-0.652-1.03-0.799-1.857c-0.01-0.055-0.015-0.107-0.023-0.162  c0.008-0.579,0.032-1.139,0.072-1.694c0.072-0.213,0.169-0.379,0.292-0.468c0.015-0.01,0.032-0.012,0.047-0.021  C40.656,40.354,40.695,40.331,40.738,40.323z"/>
<path fill="#FFFFFF" d="M94.358,61.162c-1.851-6.365-5.269-6.585-6.005-6.757c-0.085-0.02-0.172-0.038-0.26-0.055  c-2.231-2.063-0.708-10.677-0.708-10.677c0-13.129-8.881-11.838-8.881-11.838c-0.108-0.005-0.216-0.01-0.322-0.014  c-0.105,0.004-0.213,0.008-0.322,0.014c0,0-8.88-1.292-8.88,11.838c0,0,1.523,8.613-0.709,10.677  c-0.088,0.017-0.174,0.035-0.26,0.055c-0.319,0.074-1.146,0.16-2.131,0.753c1.831,0.849,4.314,2.931,5.923,8.465  c0.338,1.165,0.22,2.432-0.332,3.471c-0.008,0.015-0.021,0.028-0.03,0.043c2.218,0.243,4.565,0.348,6.741,0.347  c6.444,0.002,14.415-0.881,15.931-3.746C94.52,62.966,94.608,62.027,94.358,61.162z M84.215,53.918  c-0.029,0.24-0.136,0.473-0.308,0.692c-0.804,1.027-3.063,2.512-5.726,2.512c-2.661,0-4.921-1.484-5.725-2.512  c-0.172-0.22-0.278-0.452-0.307-0.692c0-0.001,0-0.001,0-0.001c0.041-0.013,0.133-0.046,0.254-0.101  c0.05-0.022,0.104-0.049,0.162-0.079c0.486-0.256,1.201-0.789,1.202-1.727c0,0,0,0,0.001,0c0.769,0.761,1.622,1.364,2.535,1.727  c0.613,0.243,1.254,0.378,1.911,0.378c0.658,0,1.299-0.135,1.913-0.378c0.903-0.359,1.751-0.954,2.514-1.705  c0.005,0.002,0.01,0.005,0.016,0.007c0.019,1.208,1.229,1.737,1.559,1.858C84.216,53.905,84.216,53.913,84.215,53.918z   M85.618,44.968c-0.121,0.681-0.388,1.242-0.671,1.482c-0.112,0.096-0.228,0.14-0.338,0.121c-0.063-0.01-0.119-0.041-0.171-0.089  c-0.624,1.939-1.815,3.872-3.319,5.033c-0.878,0.678-1.862,1.093-2.902,1.093c-1.046,0-2.036-0.421-2.917-1.105  c-1.497-1.163-2.684-3.088-3.304-5.02c-0.051,0.047-0.107,0.078-0.17,0.089c-0.129,0.023-0.265-0.042-0.394-0.171  c-0.263-0.262-0.503-0.794-0.617-1.431c-0.149-0.838-0.03-1.579,0.264-1.791c0.041-0.029,0.084-0.048,0.131-0.056  c0.105-0.018,0.217,0.022,0.325,0.11v0c0,0,0.001-0.01,0.003-0.026c0.037-0.365,0.522-4.448,3.578-4.165l9.35,4.812l0.759-0.731  c0.025,0.005,0.052,0.013,0.075,0.024C85.633,43.301,85.777,44.08,85.618,44.968z"/>
<path fill="#FFFFFF" d="M28.18,63.622c1.659-5.705,4.247-7.741,6.091-8.539c-1.176-0.84-2.204-0.943-2.574-1.029  c-1.487-0.349-3.289-0.199-4.25-0.5c-0.168,1.407-2.877,2.526-6.194,2.526s-6.026-1.119-6.194-2.526  c-0.961,0.301-2.763,0.151-4.25,0.5c-0.755,0.177-4.267,0.401-6.166,6.938c-0.257,0.888-0.167,1.854,0.252,2.644  c1.556,2.943,9.742,3.85,16.358,3.848c2.345,0.001,4.885-0.116,7.259-0.394C27.962,66.05,27.844,64.786,28.18,63.622z"/>
<path fill="#FFFFFF" d="M13.433,46.595c0.7,1.883,1.808,3.713,3.179,5.051c0.776,0.759,1.635,1.358,2.552,1.723  c0.63,0.249,1.287,0.387,1.963,0.387c0.675,0,1.333-0.138,1.963-0.387c0.949-0.377,1.837-1.006,2.633-1.802  c1.337-1.334,2.418-3.136,3.104-4.987c0.528-0.155,1.082-1.144,1.307-2.407c0.245-1.371,0.014-2.566-0.515-2.766  c0.02-0.334,0.031-0.673,0.031-1.02c-0.013-4.969-2.925-8.25-7.519-8.557c-4.004-0.269-7.021,1.322-8.396,3.967  c-0.462,0.89-0.727,2.395-0.828,3.604c-0.154,0.63-0.245,1.284-0.245,1.961h0.015c0,0.005-0.001,0.01-0.001,0.016  c-0.01,0.001-0.02,0.001-0.03,0.003c-0.586,0.102-0.852,1.352-0.596,2.791C12.287,45.495,12.883,46.518,13.433,46.595z   M13.797,42.522c0.041-0.029,0.085-0.049,0.133-0.058c0.109-0.019,0.223,0.023,0.334,0.113c0.001,0,0.001,0,0.001,0  c0-0.009,0.001-0.018,0.002-0.026c0.024-0.234,0.228-1.595,1.143-2.512c0.549-0.551,1.355-0.941,2.533-0.832  c0,0,2.107,0.775,4.312,0.37c0.315-0.058,0.632-0.14,0.945-0.252c0.269-0.006,0.532-0.008,0.774,0.001  c1.037,0.039,1.748,0.576,2.49,0.922c0,0,0,0,0.001,0c-0.028-0.341-0.29-0.692-0.277-0.922c0,0,0,0,0,0  c0.119,0.034,0.227,0.084,0.331,0.141c0.536,0.57,1.054,1.528,1.466,3.092c0.001,0.006,0.001,0.013,0.002,0.02  c0,0,0.001-0.001,0.002-0.001c0,0,0,0,0.001-0.001c0,0.001,0,0.001,0,0.001c0,0,0,0,0,0l0.005-0.007v0  c0.098-0.077,0.198-0.109,0.294-0.103c0.01,0.001,0.021-0.004,0.03-0.002c0,0,0,0,0.001,0c0.027,0.004,0.053,0.013,0.078,0.024  c0.342,0.161,0.489,0.96,0.326,1.873c-0.125,0.699-0.398,1.275-0.689,1.521c-0.058,0.049-0.117,0.085-0.176,0.106  c-0.058,0.021-0.116,0.028-0.173,0.018c-0.064-0.011-0.122-0.042-0.174-0.091c0,0,0,0,0,0c-0.635,1.976-1.844,3.943-3.372,5.138  c-0.228,0.179-0.463,0.34-0.704,0.48c-0.619,0.363-1.282,0.578-1.969,0.638c-0.115,0.01-0.228,0.034-0.345,0.034h0  c-1.059,0-2.061-0.42-2.958-1.105c-1.555-1.191-2.788-3.184-3.432-5.185c-0.025,0.023-0.056,0.028-0.083,0.043  c-0.03,0.017-0.058,0.042-0.091,0.048c0,0,0,0,0,0c-0.131,0.023-0.271-0.043-0.403-0.177c-0.27-0.27-0.516-0.815-0.633-1.47  c-0.008-0.043-0.012-0.085-0.019-0.127c0.007-0.458,0.027-0.902,0.058-1.341C13.623,42.725,13.698,42.594,13.797,42.522  C13.797,42.523,13.797,42.523,13.797,42.522z"/>
<path fill="#FFFFFF" stroke="#010101" stroke-width="0" stroke-linecap="round" stroke-linejoin="round" d="M28.292,42.467  c0.01,0.001,0.021-0.004,0.03-0.002"/>
<line fill="#FFFFFF" stroke="#010101" stroke-width="0" stroke-linecap="round" stroke-linejoin="round" x1="27.988" y1="42.578" x2="27.99" y2="42.577"/>
<path fill="#FFFFFF" d="M51.941,61.907c1.814-1.964,4.387-4.855,5.422-6.549c-1.211,1.789-3.611,4.483-5.346,6.36l-0.96-3.699  c-0.038,0.028-0.06,0.068-0.101,0.093L51.941,61.907z"/>
<path fill="#FFFFFF" d="M49.011,58.101c-0.041-0.024-0.063-0.066-0.1-0.094l-0.945,3.71c-1.729-1.87-4.118-4.55-5.333-6.34  c1.043,1.696,3.601,4.573,5.409,6.528L49.011,58.101z"/>
<path fill="#FFFFFF" d="M51.857,55.912c0,0.167-0.013,0.342-0.03,0.517c0.065-0.313,0.103-0.635,0.103-0.938h-3.876  c0,0.303,0.038,0.624,0.103,0.938c-0.018-0.175-0.03-0.35-0.03-0.517H51.857z"/>
<path fill="#FFFFFF" d="M34.832,55.533c-1.772,0.775-4.246,2.742-5.834,8.206c-0.315,1.091-0.208,2.27,0.284,3.254  c0.014,0.028,0.021,0.06,0.036,0.088c1.967,3.72,12.313,4.864,20.676,4.863c8.363,0.002,18.708-1.144,20.675-4.863  c0.005-0.01,0.008-0.021,0.013-0.031c0.517-0.994,0.629-2.199,0.307-3.31c-1.553-5.341-3.951-7.341-5.714-8.153  c-0.965-0.444-1.743-0.538-2.081-0.617c-1.819-0.427-4.002-0.268-5.243-0.601c-0.041-0.011-0.09-0.019-0.129-0.03  c-0.028,0.239-0.196,0.594-0.457,1.02c-1.035,1.693-3.607,4.585-5.422,6.549l-0.984-3.795c0.041-0.024,0.063-0.064,0.101-0.093  c0.499-0.362,0.707-0.974,0.77-1.591c0.018-0.175,0.03-0.35,0.03-0.517h-3.731c0,0.167,0.013,0.342,0.03,0.517  c0.063,0.609,0.268,1.214,0.754,1.579c0.037,0.027,0.059,0.069,0.1,0.094l-0.969,3.805c-1.808-1.955-4.365-4.832-5.409-6.528  c-0.268-0.435-0.441-0.797-0.47-1.04c-0.039,0.013-0.088,0.02-0.13,0.03c-1.241,0.334-3.422,0.176-5.242,0.602  C36.467,55.044,35.74,55.135,34.832,55.533z"/>
</svg>